<svg xmlns="http://www.w3.org/2000/svg" width="500" height="350" viewBox="0 0 500 350"
      preserveAspectRatio="xMinYMin meet">
      <g transform="translate(175, 175), scale(1.5, 1.5)">
            <circle r="100" cx="0" cy="0" fill="lightgray"/>
            <path d="M0,0 L100,0 A100,100 0 1,1 92.07,-39.02 Z"
                  style="fill:#ff9900; stroke:black; stroke-width:1"/>
            <path d="M0,0 L100,0 A100,100 0 1,1 -1.66,-99.986 Z"
                  style="fill:#00ff99; stroke:black; stroke-width:1"/>
            <path d="M0,0 L100,0 A100,100 0 0,1 -83.41,55.16 Z"
                  style="fill:#9900ff; stroke:black; stroke-width:1"/>
            <path d="M0,0 L100,0 A100,100 0 0,1 -62.279,78.239 Z"
                  style="fill:#e6ff00; stroke:black; stroke-width:1"/>
            <text text-anchor="start" x="110" y="-75" fill="black" font-size="60%">Washington</text>
            <text text-anchor="start" x="110" y="-60" fill="#e6ff00" font-size="50%">War/Peace:
                  35.7%</text>
            <text text-anchor="start" x="110" y="-50" fill="#9900ff" font-size="50%">Economy:
                  5%</text>
            <text text-anchor="start" x="110" y="-40" fill="#00ff99" font-size="50%">Law:
                  34.04%</text>
            <text text-anchor="start" x="110" y="-30" fill="#ff9900" font-size="50%">Sovereignty:
                  18.89%</text>
      </g>
</svg>
