<svg xmlns="http://www.w3.org/2000/svg"
     width="500"
     height="350"
     viewBox="0 0 500 350"
     preserveAspectRatio="xMinYMin meet">
   <g transform="translate(175, 175), scale(1.5, 1.5)">
      <circle r="100" cx="0" cy="0" fill="lightgray"/>
      <path d="M0,0 L100,0 A100,100 0 1,1 0.9512315530683164,0.9512315530683164 Z"
            style="fill:#ff9900; stroke:black; stroke-width:1"/>
      <path d="M0,0 L100,0 A100,100 0 1,1 0.8680926677735084,0.8680926677735084 Z"
            style="fill:#00ff99; stroke:black; stroke-width:1"/>
      <path d="M0,0 L100,0 A100,100 0 1,1 0.5202813795640808,0.5202813795640808 Z"
            style="fill:#9900ff; stroke:black; stroke-width:1"/>
      <path d="M0,0 L100,0 A100,100 0 1,1 0.41074797165097415,0.41074797165097415 Z"
            style="fill:#e6ff00; stroke:black; stroke-width:1"/>
      <text text-anchor="start"
            x="120"
            y="-75"
            fill="black"
            font-size="60%">Wilson</text>
      <text text-anchor="start"
            x="120"
            y="-60"
            fill="#e6ff00"
            font-size="50%">War/Peace: 41.07%</text>
      <text text-anchor="start"
            x="120"
            y="-50"
            fill="#9900ff"
            font-size="50%">Economy: 10.95%</text>
      <text text-anchor="start"
            x="120"
            y="-40"
            fill="#00ff99"
            font-size="50%">Law: 34.78%</text>
      <text text-anchor="start"
            x="120"
            y="-30"
            fill="#ff9900"
            font-size="50%">Sovereignty: 8.31%</text>
   </g>
</svg>
